<svg xmlns="http://www.w3.org/2000/svg" width="48" height="48" fill="none" viewBox="0 0 48 48">
    <path stroke="#D5D7DF" d="M24 47.5c12.979 0 23.5-10.521 23.5-23.5S36.979.5 24 .5.5 11.021.5 24 11.021 47.5 24 47.5z"/>
    <path fill="#0064D2" stroke="#0064D2" stroke-width=".75" d="M31.426 14.517c-.172-.077-.363-.103-.55-.076-.186.027-.361.106-.505.229l-1.358 1.15-1.853-1.581c-.183-.154-.415-.239-.654-.239-.24 0-.47.085-.654.239L24 15.819l-1.853-1.58c-.183-.154-.415-.239-.654-.239-.24 0-.472.085-.655.239l-1.853 1.582-1.363-1.151c-.196-.164-.448-.248-.703-.233-.256.014-.496.125-.673.31-.159.169-.247.392-.246.624v17.258c.005.253.11.494.291.67.182.175.426.271.679.267.24.002.471-.081.654-.235l1.362-1.151 1.853 1.582c.183.154.415.238.654.238.24 0 .47-.084.654-.238l1.852-1.581 1.852 1.58c.183.154.415.239.655.239.239 0 .47-.085.654-.24l1.854-1.581 1.363 1.15c.196.165.448.249.703.234.256-.014.496-.125.673-.31.16-.17.247-.393.246-.625V15.37c0-.183-.054-.362-.156-.514-.102-.153-.247-.27-.417-.34v0zm-1.764 16.96c-.182-.151-.412-.235-.65-.235-.238 0-.468.084-.65.236l-1.853 1.582-1.852-1.58c-.183-.154-.415-.239-.654-.239-.24 0-.47.085-.654.239l-1.852 1.58-1.854-1.582c-.182-.153-.412-.237-.65-.237-.238 0-.468.084-.65.237l-1.362 1.15V15.368l1.361 1.15c.182.153.413.236.65.236.238 0 .468-.083.65-.235l1.852-1.582 1.852 1.58c.183.154.415.238.654.238.24 0 .47-.084.654-.238l1.852-1.58 1.854 1.582c.182.153.412.237.65.237.238 0 .468-.084.65-.237l1.358-1.151V32.628l-1.356-1.15z"/>
    <path fill="#0064D2" stroke="#0064D2" stroke-width=".75" d="M28.652 23.532h-9.3c-.063-.003-.127.007-.186.03-.06.021-.114.055-.16.1-.045.043-.082.096-.107.154-.025.058-.038.121-.038.184 0 .064.013.127.038.185.025.058.062.11.107.155.046.044.1.078.16.1.06.022.123.032.186.029h9.3c.063.003.127-.007.186-.03.06-.021.114-.055.16-.1.045-.043.082-.096.107-.154.025-.058.038-.121.038-.184 0-.064-.013-.127-.038-.185-.025-.058-.062-.11-.107-.155-.046-.044-.1-.078-.16-.1-.06-.022-.123-.032-.186-.029v0zM24.234 20.722h-4.888c-.063-.003-.127.007-.186.03-.06.021-.114.055-.16.1-.045.043-.082.096-.107.154-.025.058-.038.121-.038.184 0 .064.013.127.038.185.025.058.062.11.107.155.046.043.1.078.16.1.06.022.123.032.186.029h4.888c.063.003.127-.007.186-.03.06-.021.114-.056.16-.1.045-.043.082-.096.107-.154.025-.058.038-.121.038-.185 0-.063-.013-.126-.038-.184-.025-.058-.062-.111-.108-.155-.045-.044-.1-.078-.159-.1-.06-.022-.123-.032-.186-.03zM28.652 26.342h-9.3c-.063-.003-.127.007-.186.029-.06.022-.114.056-.16.1-.045.044-.082.096-.107.155-.025.058-.038.12-.038.184s.013.127.038.185c.025.058.062.11.107.154.046.044.1.078.16.1.06.023.123.033.186.03h9.3c.063.003.127-.007.186-.03.06-.022.114-.056.16-.1.045-.043.082-.096.107-.154.025-.059.038-.121.038-.185 0-.063-.013-.126-.038-.184-.025-.059-.062-.111-.107-.155-.046-.044-.1-.078-.16-.1-.06-.022-.123-.032-.186-.03z"/>
</svg>
