<svg xmlns="http://www.w3.org/2000/svg" width="48" height="48" fill="none" viewBox="0 0 48 48">
    <path stroke="#D5D7DF" d="M24 47.5c12.979 0 23.5-10.521 23.5-23.5S36.979.5 24 .5.5 11.021.5 24 11.021 47.5 24 47.5z"/>
    <path stroke="#0064D2" stroke-linecap="round" stroke-linejoin="round" stroke-width="2" d="M16.991 27.527v-7.008m0-3.519v-2c0-.265.105-.52.293-.707.187-.188.442-.293.707-.293h14c.265 0 .52.105.707.293.188.187.293.442.293.707v18c0 .265-.105.52-.293.707-.188.188-.442.293-.707.293h-14c-.265 0-.52-.105-.707-.293-.188-.187-.293-.442-.293-.707V17z"/>
    <path stroke="#0064D2" stroke-width="1.2" d="M24.983 20.992c1.063 0 1.924-.896 1.924-2 0-1.105-.861-2-1.924-2s-1.924.895-1.924 2c0 1.104.861 2 1.924 2z"/>
    <path stroke="#0064D2" stroke-linecap="round" stroke-linejoin="round" stroke-width="1.2" d="M26 24.992h-4.463V22.9c.34-.602.84-1.099 1.444-1.434.604-.336 1.29-.497 1.981-.466.69-.031 1.377.13 1.981.466.605.335 1.105.832 1.444 1.434V25h-.863"/>
    <path stroke="#0064D2" stroke-linecap="round" stroke-width="2" d="M16.991 17H15M16.991 27.53H15"/>
    <path stroke="#0064D2" stroke-linecap="round" stroke-width="1.2" d="M21 28.5h8.029M22.008 30.5h6.011"/>
</svg>
