<svg xmlns="http://www.w3.org/2000/svg" width="48" height="48" fill="none" viewBox="0 0 48 48">
    <path fill="#0064D2" fill-rule="evenodd" stroke="#0064D2" stroke-width=".5" d="M24 13c-2.176 0-4.302.645-6.111 1.854-1.81 1.209-3.22 2.927-4.052 4.937-.832 2.01-1.05 4.221-.626 6.355.425 2.134 1.473 4.094 3.01 5.632 1.54 1.539 3.5 2.586 5.633 3.01 2.134.425 4.346.207 6.355-.625 2.01-.833 3.729-2.243 4.937-4.052C34.355 28.302 35 26.176 35 24c0-2.917-1.159-5.715-3.222-7.778C29.715 14.159 26.918 13 24 13zm-9.5 11c0-1.515.362-3.007 1.056-4.354.694-1.346 1.7-2.507 2.934-3.386 1.234-.878 2.66-1.449 4.16-1.664 1.498-.216 3.027-.07 4.459.426 1.431.496 2.723 1.327 3.768 2.423 1.045 1.097 1.813 2.427 2.239 3.88.426 1.454.499 2.988.212 4.476-.288 1.487-.926 2.884-1.863 4.074-1.146-1.707-2.81-3.002-4.745-3.695.837-.895 1.295-2.08 1.28-3.305.064-1.127-.321-2.233-1.07-3.076-.75-.843-1.804-1.355-2.93-1.424-1.126.069-2.18.58-2.93 1.424-.749.843-1.134 1.95-1.07 3.076-.006.628.113 1.252.35 1.834.236.582.587 1.11 1.03 1.556-1.949.699-3.593 2.055-4.65 3.835-1.44-1.706-2.23-3.867-2.23-6.1zm9.75 1.75c-.274.001-.548.016-.82.045-.593-.215-1.1-.615-1.448-1.14-.348-.527-.517-1.15-.482-1.78-.06-.728.169-1.45.636-2.011.468-.561 1.137-.916 1.864-.989.727.073 1.396.428 1.864.989.467.56.696 1.283.636 2.011.03.613-.13 1.22-.46 1.738-.33.517-.812.92-1.38 1.152-.135-.005-.27-.015-.41-.015zm-6.41 5.5c.535-1.045 1.315-1.947 2.272-2.627.958-.68 2.065-1.12 3.228-1.283.487.095.988.083 1.47-.035 1.152.155 2.253.57 3.221 1.213.969.642 1.778 1.496 2.369 2.497-1.703 1.572-3.925 2.465-6.243 2.508-2.318.043-4.57-.765-6.332-2.273h.015z" clip-rule="evenodd"/>
    <path stroke="#D5D7DF" d="M24 47.5c12.979 0 23.5-10.521 23.5-23.5S36.979.5 24 .5.5 11.021.5 24 11.021 47.5 24 47.5z"/>
</svg>
